<svg xmlns="http://www.w3.org/2000/svg" xmlns:xlink="http://www.w3.org/1999/xlink" width="1120" height="960"><g transform="translate(0 0)"><path d="M0 0h1120v960H0z" fill="#f2f2f2"/><path d="M449.62 80H649v70.42H449.62z" stroke="#3d4752" stroke-width="2" fill="#fff"/><use xlink:href="#a" transform="matrix(1,0,0,1,454.6214396685656,80) translate(60.019999999999996 42.08)"/><path d="M449.62 267.8H649v70.42H449.62z" stroke="#3d4752" stroke-width="2" fill="#fff"/><use xlink:href="#b" transform="matrix(1,0,0,1,454.62143966856564,267.79922779922776) translate(24.73999999999998 42.08)"/><use xlink:href="#c" transform="matrix(1,0,0,1,454.62143966856564,267.79922779922776) translate(89.67999999999999 42.08)"/><path d="M549.3 150.42V267.8" stroke="#f78c20" stroke-width="2" fill="none"/><path d="M550.3 267.8h-2 2z" fill="#f78c20"/><path d="M713.74 267.8H913.1v70.42H713.75z" stroke="#3d4752" stroke-width="2" fill="#fff"/><use xlink:href="#d" transform="matrix(1,0,0,1,718.7358881408597,267.79922779922776) translate(14.22999999999999 42.08)"/><use xlink:href="#e" transform="matrix(1,0,0,1,718.7358881408597,267.79922779922776) translate(89.72999999999999 42.08)"/><path d="M185.5 267.8h199.4v70.42H185.5z" stroke="#3d4752" stroke-width="2" fill="#fff"/><use xlink:href="#b" transform="matrix(1,0,0,1,190.50699119627149,267.79922779922776) translate(22.059999999999988 42.08)"/><use xlink:href="#f" transform="matrix(1,0,0,1,190.50699119627149,267.79922779922776) translate(87 42.08)"/><path d="M185.5 173.9h199.4v70.42H185.5z" stroke="#3d4752" stroke-width="2" fill="#fff"/><use xlink:href="#g" transform="matrix(1,0,0,1,190.50699119627149,173.89961389961394) translate(9.95999999999998 42.08)"/><use xlink:href="#h" transform="matrix(1,0,0,1,190.50699119627149,173.89961389961394) translate(68.82 42.08)"/><path d="M322.52 432.12H521.9v70.43H322.52z" stroke="#3d4752" stroke-width="2" fill="#fff"/><use xlink:href="#i" transform="matrix(1,0,0,1,327.51760745727614,432.12355212355203) translate(30.919999999999987 42.08)"/><use xlink:href="#j" transform="matrix(1,0,0,1,327.51760745727614,432.12355212355203) translate(96.24000000000001 42.08)"/><path d="M576.73 432.12H776.1v70.43H576.73z" stroke="#3d4752" stroke-width="2" fill="#fff"/><use xlink:href="#k" transform="matrix(1,0,0,1,581.725271879855,432.12355212355203) translate(49.78 42.08)"/><path d="M68.3 432.12h199.4v70.43H68.3z" stroke="#3d4752" stroke-width="2" fill="#fff"/><use xlink:href="#l" transform="matrix(1,0,0,1,73.30994303469714,432.12355212355203) translate(64.30999999999999 29.9)"/><use xlink:href="#m" transform="matrix(1,0,0,1,73.30994303469714,432.12355212355203) translate(36.019999999999996 54.260000000000005)"/><path d="M831.43 432.12h199.38v70.43H831.44z" stroke="#3d4752" stroke-width="2" fill="#fff"/><use xlink:href="#n" transform="matrix(1,0,0,1,836.4313827032624,432.12355212355203) translate(60.66 42.08)"/><path d="M549.3 338.22v46.95H168v46.95" stroke="#f78c20" stroke-width="2" fill="none"/><path d="M549.3 338.22v46.95H422.2v46.95M549.3 338.22v46.95h127.1v46.95" stroke="#f78c20" stroke-width="2" fill="none"/><path d="M549.3 338.22v46.95h381.82v46.95" stroke="#f78c20" stroke-width="2" fill="none"/><path d="M130.62 549.5H268.2v70.42H130.6z" stroke="#3d4752" stroke-width="2" fill="#fff"/><use xlink:href="#o" transform="matrix(1,0,0,1,135.61574313827037,549.4980694980695) translate(22.159999999999997 29.9)"/><use xlink:href="#p" transform="matrix(1,0,0,1,135.61574313827037,549.4980694980695) translate(26.619999999999997 54.260000000000005)"/><path d="M384.82 549.5H522.4v70.42H384.8z" stroke="#3d4752" stroke-width="2" fill="#fff"/><use xlink:href="#q" transform="matrix(1,0,0,1,389.82340756084926,549.4980694980695) translate(9.519999999999989 29.9)"/><use xlink:href="#j" transform="matrix(1,0,0,1,389.82340756084926,549.4980694980695) translate(32.58 54.260000000000005)"/><path d="M384.82 666.87H522.4v70.43H384.8z" stroke="#3d4752" stroke-width="2" fill="#fff"/><use xlink:href="#r" transform="matrix(1,0,0,1,389.82340756084926,666.8725868725869) translate(24.209999999999994 29.9)"/><use xlink:href="#s" transform="matrix(1,0,0,1,389.82340756084926,666.8725868725869) translate(41.33 54.260000000000005)"/><path d="M639.03 549.5H776.6v70.42H639.03z" stroke="#3d4752" stroke-width="2" fill="#fff"/><use xlink:href="#t" transform="matrix(1,0,0,1,644.0310719834282,549.4980694980695) translate(25.319999999999993 29.9)"/><use xlink:href="#p" transform="matrix(1,0,0,1,644.0310719834282,549.4980694980695) translate(26.619999999999997 54.260000000000005)"/><path d="M639.03 666.87H776.6v70.43H639.03z" stroke="#3d4752" stroke-width="2" fill="#fff"/><use xlink:href="#u" transform="matrix(1,0,0,1,644.0310719834282,666.8725868725869) translate(25.04 29.9)"/><use xlink:href="#p" transform="matrix(1,0,0,1,644.0310719834282,666.8725868725869) translate(26.619999999999997 54.260000000000005)"/><path d="M893.24 549.5h137.57v70.42H893.25z" stroke="#3d4752" stroke-width="2" fill="#fff"/><use xlink:href="#r" transform="matrix(1,0,0,1,898.2387364060072,549.4980694980695) translate(24.209999999999994 29.9)"/><use xlink:href="#v" transform="matrix(1,0,0,1,898.2387364060072,549.4980694980695) translate(29.769999999999996 54.260000000000005)"/><path d="M893.24 666.87h137.57v70.43H893.25z" stroke="#3d4752" stroke-width="2" fill="#fff"/><use xlink:href="#w" transform="matrix(1,0,0,1,898.2387364060072,666.8725868725869) translate(11.679999999999993 42.08)"/><use xlink:href="#c" transform="matrix(1,0,0,1,898.2387364060072,666.8725868725869) translate(40.739999999999995 42.08)"/><path d="M103.04 503.72v81h27.58" stroke="#f78c20" stroke-width="2" fill="none"/><path d="M104.04 503.72h-2v-1.17h2z" fill="#f78c20"/><path d="M358.24 503.72v81h26.58" stroke="#f78c20" stroke-width="2" fill="none"/><path d="M359.24 503.72h-2v-1.17h2z" fill="#f78c20"/><path d="M323.02 789.58H522.4V860H323z" stroke="#3d4752" stroke-width="2" fill="#fff"/><use xlink:href="#x" transform="matrix(1,0,0,1,328.0160538581046,789.5752895752896) translate(36.05 42.08)"/><use xlink:href="#y" transform="matrix(1,0,0,1,328.0160538581046,789.5752895752896) translate(78.57 42.08)"/><path d="M577.22 789.58H776.6V860H577.22z" stroke="#3d4752" stroke-width="2" fill="#fff"/><use xlink:href="#z" transform="matrix(1,0,0,1,582.2237182806837,789.5752895752896) translate(30.079999999999984 42.08)"/><path d="M449.62 303h-63.74" stroke="#f78c20" stroke-width="2" fill="none"/><path d="M385.88 304h-1v-2h1z" fill="#f78c20"/><path d="M649 303h64.74M549.3 150.42v58.7H384.9M549.3 338.22V824.8h27.92M549.3 338.22V824.8h-26.9M358.24 503.72v198.36h26.58" stroke="#f78c20" stroke-width="2" fill="none"/><path d="M359.24 503.72h-2v-1.17h2z" fill="#f78c20"/><path d="M608.13 503.72v81h30.9" stroke="#f78c20" stroke-width="2" fill="none"/><path d="M609.13 503.72h-2v-1.17h2z" fill="#f78c20"/><path d="M608.13 503.72v198.36h30.9" stroke="#f78c20" stroke-width="2" fill="none"/><path d="M609.13 503.72h-2v-1.17h2z" fill="#f78c20"/><path d="M869.3 503.72v81h23.94" stroke="#f78c20" stroke-width="2" fill="none"/><path d="M870.3 503.72h-2v-1.17h2z" fill="#f78c20"/><path d="M869.3 503.72v198.36h23.94" stroke="#f78c20" stroke-width="2" fill="none"/><path d="M870.3 503.72h-2v-1.17h2z" fill="#f78c20"/><defs><path fill="#3d4752" d="M501-197C501-58 404 8 261 8 136 8 60-57 38-164l66-21c23 68 76 100 160 100 70 0 125-25 125-95 0-124-164-115-245-170-55-37-96-85-94-176 3-128 84-192 214-192 111 0 210 39 219 144 4 52-73 70-93 19-21-55-71-59-142-65-90-7-115 112-47 152 96 56 246 61 285 176 9 26 15 57 15 95" id="A"/><path fill="#3d4752" d="M306 8c-62 0-99-17-130-56v301H68v-752h100l1 53c24-36 80-62 140-60 136 5 176 115 176 261C485-98 446 8 306 8zm70-252c1-104-24-178-110-178-37 0-67 12-90 35v276c23 23 53 35 89 35 90-2 110-74 111-168" id="B"/><path fill="#3d4752" d="M37-255c0-168 62-251 222-251s220 85 220 254C479-82 419 9 259 9 94 9 38-81 37-255zm334 9c0-109-21-176-114-176-85 0-112 63-111 161 1 101 18 185 114 185 74 0 111-57 111-170" id="C"/><path fill="#3d4752" d="M322-506c123-1 151 89 152 216V0H366v-296c-1-79-16-126-89-126-40 0-73 14-100 42V0H69v-499h99l2 56c34-42 85-63 152-63" id="D"/><path fill="#3d4752" d="M391-208C489 16 97 99 39-126l68-17c13 43 62 72 113 72 48 0 87-17 87-65 0-84-129-69-186-111-36-26-66-60-65-123 1-92 74-137 172-136 82 2 152 23 164 89 4 23-22 50-45 47-50-6-59-62-123-58-36 2-77 17-75 58 4 66 102 62 157 88 37 18 69 37 85 74" id="E"/><path fill="#3d4752" d="M264-427c-39 1-80 34-88 69V0H68v-499h99l2 64c21-39 69-71 126-71 53 0 103 27 108 79 3 25-22 51-46 49-41-3-44-51-93-49" id="F"/><g id="a"><use transform="matrix(0.020000000000000004,0,0,0.020000000000000004,0,0)" xlink:href="#A"/><use transform="matrix(0.020000000000000004,0,0,0.020000000000000004,10.860000000000003,0)" xlink:href="#B"/><use transform="matrix(0.020000000000000004,0,0,0.020000000000000004,21.300000000000004,0)" xlink:href="#C"/><use transform="matrix(0.020000000000000004,0,0,0.020000000000000004,31.620000000000005,0)" xlink:href="#D"/><use transform="matrix(0.020000000000000004,0,0,0.020000000000000004,42.48000000000001,0)" xlink:href="#E"/><use transform="matrix(0.020000000000000004,0,0,0.020000000000000004,51.34,0)" xlink:href="#C"/><use transform="matrix(0.020000000000000004,0,0,0.020000000000000004,61.660000000000004,0)" xlink:href="#F"/></g><path fill="#3d4752" d="M509-496c0 181-136 243-317 212V0H73v-709c60-3 123-3 191-4 161-3 245 56 245 217zM269-628c-26 0-53 1-77 2v260c24 3 48 5 75 5 89-1 122-41 122-134 0-91-29-132-120-133" id="G"/><path fill="#3d4752" d="M30 172c41 0 54-26 54-73v-598h108V80c0 117-45 173-151 176-79 2-118-42-139-98l67-23c12 24 30 37 61 37zm107-861c46 0 58 7 58 51 0 46-12 48-58 50-40 2-61-9-59-50 2-45 12-51 59-51" id="H"/><path fill="#3d4752" d="M252-506c152 0 220 116 200 271H143c1 95 39 158 128 159 59 0 93-30 109-75l68 18C425-50 363 8 265 8 105 8 36-85 37-254c0-168 72-252 215-252zm100 207c-1-74-34-128-102-128-70 0-105 56-106 128h208" id="I"/><path fill="#3d4752" d="M270-76c63 0 92-32 110-81l67 19C427-57 365 10 263 8 101 7 41-85 37-254c-5-189 108-283 288-244 57 12 114 44 120 109 4 44-68 63-87 21-15-33-50-54-94-54-86 0-118 71-118 169 0 103 32 177 124 177" id="J"/><path fill="#3d4752" d="M214 8C121 8 84-49 84-145v-280H16v-74h68v-125l108-15v140h116v74H192v289c0 39 14 58 50 59 32 0 46-11 60-30l35 29C318-26 286 9 214 8" id="K"/><g id="b"><use transform="matrix(0.020000000000000004,0,0,0.020000000000000004,0,0)" xlink:href="#G"/><use transform="matrix(0.020000000000000004,0,0,0.020000000000000004,10.860000000000003,0)" xlink:href="#F"/><use transform="matrix(0.020000000000000004,0,0,0.020000000000000004,18.940000000000005,0)" xlink:href="#C"/><use transform="matrix(0.020000000000000004,0,0,0.020000000000000004,29.260000000000005,0)" xlink:href="#H"/><use transform="matrix(0.020000000000000004,0,0,0.020000000000000004,34.34,0)" xlink:href="#I"/><use transform="matrix(0.020000000000000004,0,0,0.020000000000000004,44.2,0)" xlink:href="#J"/><use transform="matrix(0.020000000000000004,0,0,0.020000000000000004,53.800000000000004,0)" xlink:href="#K"/></g><path fill="#3d4752" d="M781 0H670l-27-488L474-30H363L194-489 167 0H56l50-710h123l192 530 193-530h118" id="L"/><path fill="#3d4752" d="M246-506c117-2 169 55 169 164v232c-5 35 17 58 43 39l13 38C454-9 435 5 393 5c-35 0-59-18-74-54-26 34-72 57-132 57C91 7 35-44 35-145c0-139 127-176 272-155 3-70 0-127-70-124-48 2-82 14-99 47-19 36-95 26-87-20 13-80 100-107 195-109zM225-72c38 0 67-16 83-35v-133c-80-12-167-3-167 86 0 52 33 82 84 82" id="M"/><path fill="#3d4752" d="M214-506c57-2 104 20 134 47l1-40h100V50c1 135-60 206-192 206-105 0-169-44-198-119l68-22c19 35 61 58 117 57 66-2 97-35 97-109V-49C313-20 270-2 213-2 74-3 37-106 37-250s41-252 177-256zm38 425c38 0 67-14 89-35v-275c-25-24-56-36-92-36-87 0-105 72-105 178 0 104 21 168 108 168" id="N"/><g id="c"><use transform="matrix(0.020000000000000004,0,0,0.020000000000000004,0,0)" xlink:href="#L"/><use transform="matrix(0.020000000000000004,0,0,0.020000000000000004,16.700000000000003,0)" xlink:href="#M"/><use transform="matrix(0.020000000000000004,0,0,0.020000000000000004,26.480000000000004,0)" xlink:href="#D"/><use transform="matrix(0.020000000000000004,0,0,0.020000000000000004,37.34,0)" xlink:href="#M"/><use transform="matrix(0.020000000000000004,0,0,0.020000000000000004,47.12,0)" xlink:href="#N"/><use transform="matrix(0.020000000000000004,0,0,0.020000000000000004,57.42000000000001,0)" xlink:href="#I"/><use transform="matrix(0.020000000000000004,0,0,0.020000000000000004,67.28000000000002,0)" xlink:href="#F"/></g><path fill="#3d4752" d="M172 0H64v-499h108V0zm-54-689c46 0 58 7 58 51 0 46-12 48-58 50-40 2-61-9-59-50 2-45 12-51 59-51" id="O"/><g id="d"><use transform="matrix(0.020000000000000004,0,0,0.020000000000000004,0,0)" xlink:href="#A"/><use transform="matrix(0.020000000000000004,0,0,0.020000000000000004,10.860000000000003,0)" xlink:href="#K"/><use transform="matrix(0.020000000000000004,0,0,0.020000000000000004,17.660000000000004,0)" xlink:href="#I"/><use transform="matrix(0.020000000000000004,0,0,0.020000000000000004,27.520000000000007,0)" xlink:href="#I"/><use transform="matrix(0.020000000000000004,0,0,0.020000000000000004,37.38,0)" xlink:href="#F"/><use transform="matrix(0.020000000000000004,0,0,0.020000000000000004,45.68000000000001,0)" xlink:href="#O"/><use transform="matrix(0.020000000000000004,0,0,0.020000000000000004,50.40000000000001,0)" xlink:href="#D"/><use transform="matrix(0.020000000000000004,0,0,0.020000000000000004,61.260000000000005,0)" xlink:href="#N"/></g><path fill="#3d4752" d="M352-78c89 2 147-49 175-112l66 21C555-64 477 8 341 8 119 8 33-120 33-354c0-250 120-398 375-358 76 12 130 55 165 114 33 56-45 113-79 54-30-52-81-88-155-88-140 0-175 115-175 276 0 167 37 275 188 278" id="P"/><path fill="#3d4752" d="M587-506c121 0 146 91 146 216V0H625v-296c-2-78-12-126-83-126-35 0-66 16-94 49 11 115 2 250 5 373H350v-298c-2-78-12-124-83-124-42 0-67 19-90 42V0H69v-499h99l3 54c44-75 231-90 261 8 39-46 90-69 155-69" id="Q"/><g id="e"><use transform="matrix(0.020000000000000004,0,0,0.020000000000000004,0,0)" xlink:href="#P"/><use transform="matrix(0.020000000000000004,0,0,0.020000000000000004,12.440000000000003,0)" xlink:href="#C"/><use transform="matrix(0.020000000000000004,0,0,0.020000000000000004,22.760000000000005,0)" xlink:href="#Q"/><use transform="matrix(0.020000000000000004,0,0,0.020000000000000004,38.78000000000001,0)" xlink:href="#Q"/><use transform="matrix(0.020000000000000004,0,0,0.020000000000000004,54.80000000000001,0)" xlink:href="#O"/><use transform="matrix(0.020000000000000004,0,0,0.020000000000000004,59.52000000000001,0)" xlink:href="#K"/><use transform="matrix(0.020000000000000004,0,0,0.020000000000000004,66.32000000000001,0)" xlink:href="#I"/><use transform="matrix(0.020000000000000004,0,0,0.020000000000000004,76.18,0)" xlink:href="#I"/></g><path fill="#3d4752" d="M180 0H73v-744h107V0" id="R"/><g id="f"><use transform="matrix(0.020000000000000004,0,0,0.020000000000000004,0,0)" xlink:href="#A"/><use transform="matrix(0.020000000000000004,0,0,0.020000000000000004,10.860000000000003,0)" xlink:href="#B"/><use transform="matrix(0.020000000000000004,0,0,0.020000000000000004,21.300000000000004,0)" xlink:href="#I"/><use transform="matrix(0.020000000000000004,0,0,0.020000000000000004,31.16,0)" xlink:href="#J"/><use transform="matrix(0.020000000000000004,0,0,0.020000000000000004,40.760000000000005,0)" xlink:href="#O"/><use transform="matrix(0.020000000000000004,0,0,0.020000000000000004,45.48,0)" xlink:href="#M"/><use transform="matrix(0.020000000000000004,0,0,0.020000000000000004,55.260000000000005,0)" xlink:href="#R"/><use transform="matrix(0.020000000000000004,0,0,0.020000000000000004,60.36,0)" xlink:href="#O"/><use transform="matrix(0.020000000000000004,0,0,0.020000000000000004,65.08000000000001,0)" xlink:href="#E"/><use transform="matrix(0.020000000000000004,0,0,0.020000000000000004,73.74000000000001,0)" xlink:href="#K"/></g><g id="g"><use transform="matrix(0.020000000000000004,0,0,0.020000000000000004,0,0)" xlink:href="#A"/><use transform="matrix(0.020000000000000004,0,0,0.020000000000000004,10.860000000000003,0)" xlink:href="#I"/><use transform="matrix(0.020000000000000004,0,0,0.020000000000000004,20.720000000000002,0)" xlink:href="#D"/><use transform="matrix(0.020000000000000004,0,0,0.020000000000000004,31.58000000000001,0)" xlink:href="#O"/><use transform="matrix(0.020000000000000004,0,0,0.020000000000000004,36.30000000000001,0)" xlink:href="#C"/><use transform="matrix(0.020000000000000004,0,0,0.020000000000000004,46.62000000000001,0)" xlink:href="#F"/></g><g id="h"><use transform="matrix(0.020000000000000004,0,0,0.020000000000000004,0,0)" xlink:href="#L"/><use transform="matrix(0.020000000000000004,0,0,0.020000000000000004,16.700000000000003,0)" xlink:href="#M"/><use transform="matrix(0.020000000000000004,0,0,0.020000000000000004,26.480000000000004,0)" xlink:href="#D"/><use transform="matrix(0.020000000000000004,0,0,0.020000000000000004,37.34,0)" xlink:href="#M"/><use transform="matrix(0.020000000000000004,0,0,0.020000000000000004,47.12,0)" xlink:href="#N"/><use transform="matrix(0.020000000000000004,0,0,0.020000000000000004,57.42000000000001,0)" xlink:href="#I"/><use transform="matrix(0.020000000000000004,0,0,0.020000000000000004,67.28000000000002,0)" xlink:href="#Q"/><use transform="matrix(0.020000000000000004,0,0,0.020000000000000004,83.30000000000001,0)" xlink:href="#I"/><use transform="matrix(0.020000000000000004,0,0,0.020000000000000004,93.16000000000003,0)" xlink:href="#D"/><use transform="matrix(0.020000000000000004,0,0,0.020000000000000004,104.02,0)" xlink:href="#K"/></g><path fill="#3d4752" d="M40 213c0-51 59-33 88-55 38-28 58-83 71-136L10-499h113l120 387 119-387h98L264 95c-29 81-68 157-174 161-28 0-50-16-50-43" id="S"/><g id="i"><use transform="matrix(0.020000000000000004,0,0,0.020000000000000004,0,0)" xlink:href="#A"/><use transform="matrix(0.020000000000000004,0,0,0.020000000000000004,10.860000000000003,0)" xlink:href="#S"/><use transform="matrix(0.020000000000000004,0,0,0.020000000000000004,20.040000000000006,0)" xlink:href="#E"/><use transform="matrix(0.020000000000000004,0,0,0.020000000000000004,28.70000000000001,0)" xlink:href="#K"/><use transform="matrix(0.020000000000000004,0,0,0.020000000000000004,35.500000000000014,0)" xlink:href="#I"/><use transform="matrix(0.020000000000000004,0,0,0.020000000000000004,45.36000000000002,0)" xlink:href="#Q"/></g><path fill="#3d4752" d="M587 0H460l-44-143H171L129 0H18l224-710h114zM194-226h198L292-540" id="T"/><g id="j"><use transform="matrix(0.020000000000000004,0,0,0.020000000000000004,0,0)" xlink:href="#T"/><use transform="matrix(0.020000000000000004,0,0,0.020000000000000004,12.060000000000002,0)" xlink:href="#D"/><use transform="matrix(0.020000000000000004,0,0,0.020000000000000004,22.920000000000005,0)" xlink:href="#M"/><use transform="matrix(0.020000000000000004,0,0,0.020000000000000004,32.7,0)" xlink:href="#R"/><use transform="matrix(0.020000000000000004,0,0,0.020000000000000004,37.800000000000004,0)" xlink:href="#S"/><use transform="matrix(0.020000000000000004,0,0,0.020000000000000004,46.98,0)" xlink:href="#E"/><use transform="matrix(0.020000000000000004,0,0,0.020000000000000004,55.64,0)" xlink:href="#K"/></g><path fill="#3d4752" d="M486-613H301V0H182v-613H2v-97h484v97" id="U"/><path fill="#3d4752" d="M280-422c-43 0-76 17-99 42V0H73v-744h108v301c34-41 73-63 145-63 123-1 151 90 152 217V0H370v-307c0-76-22-115-90-115" id="V"/><g id="k"><use transform="matrix(0.020000000000000004,0,0,0.020000000000000004,0,0)" xlink:href="#U"/><use transform="matrix(0.020000000000000004,0,0,0.020000000000000004,9.14,0)" xlink:href="#I"/><use transform="matrix(0.020000000000000004,0,0,0.020000000000000004,19,0)" xlink:href="#J"/><use transform="matrix(0.020000000000000004,0,0,0.020000000000000004,28.6,0)" xlink:href="#V"/><use transform="matrix(0.020000000000000004,0,0,0.020000000000000004,39.52,0)" xlink:href="#D"/><use transform="matrix(0.020000000000000004,0,0,0.020000000000000004,50.38000000000001,0)" xlink:href="#O"/><use transform="matrix(0.020000000000000004,0,0,0.020000000000000004,55.10000000000001,0)" xlink:href="#D"/><use transform="matrix(0.020000000000000004,0,0,0.020000000000000004,65.96000000000001,0)" xlink:href="#J"/><use transform="matrix(0.020000000000000004,0,0,0.020000000000000004,75.56,0)" xlink:href="#M"/><use transform="matrix(0.020000000000000004,0,0,0.020000000000000004,85.34,0)" xlink:href="#R"/></g><g id="l"><use transform="matrix(0.020000000000000004,0,0,0.020000000000000004,0,0)" xlink:href="#A"/><use transform="matrix(0.020000000000000004,0,0,0.020000000000000004,10.860000000000003,0)" xlink:href="#S"/><use transform="matrix(0.020000000000000004,0,0,0.020000000000000004,20.040000000000006,0)" xlink:href="#E"/><use transform="matrix(0.020000000000000004,0,0,0.020000000000000004,28.70000000000001,0)" xlink:href="#K"/><use transform="matrix(0.020000000000000004,0,0,0.020000000000000004,35.500000000000014,0)" xlink:href="#I"/><use transform="matrix(0.020000000000000004,0,0,0.020000000000000004,45.36000000000002,0)" xlink:href="#Q"/></g><path fill="#3d4752" d="M145-255c-1 104 26 179 108 179 38 0 68-12 91-37v-275c-25-23-54-34-88-34-91 1-110 73-111 167zm69-251c62 0 99 17 130 56v-294h109V0H353l-2-54c-23 37-79 64-139 62C74 4 36-109 36-254c0-147 37-252 178-252" id="W"/><g id="m"><use transform="matrix(0.020000000000000004,0,0,0.020000000000000004,0,0)" xlink:href="#T"/><use transform="matrix(0.020000000000000004,0,0,0.020000000000000004,12.060000000000002,0)" xlink:href="#W"/><use transform="matrix(0.020000000000000004,0,0,0.020000000000000004,22.480000000000004,0)" xlink:href="#Q"/><use transform="matrix(0.020000000000000004,0,0,0.020000000000000004,38.50000000000001,0)" xlink:href="#O"/><use transform="matrix(0.020000000000000004,0,0,0.020000000000000004,43.220000000000006,0)" xlink:href="#D"/><use transform="matrix(0.020000000000000004,0,0,0.020000000000000004,54.08000000000001,0)" xlink:href="#O"/><use transform="matrix(0.020000000000000004,0,0,0.020000000000000004,58.80000000000001,0)" xlink:href="#E"/><use transform="matrix(0.020000000000000004,0,0,0.020000000000000004,67.46000000000001,0)" xlink:href="#K"/><use transform="matrix(0.020000000000000004,0,0,0.020000000000000004,74.66000000000001,0)" xlink:href="#F"/><use transform="matrix(0.020000000000000004,0,0,0.020000000000000004,82.96000000000002,0)" xlink:href="#M"/><use transform="matrix(0.020000000000000004,0,0,0.020000000000000004,92.54,0)" xlink:href="#K"/><use transform="matrix(0.020000000000000004,0,0,0.020000000000000004,99.34,0)" xlink:href="#C"/><use transform="matrix(0.020000000000000004,0,0,0.020000000000000004,109.66,0)" xlink:href="#F"/></g><g id="n"><use transform="matrix(0.020000000000000004,0,0,0.020000000000000004,0,0)" xlink:href="#U"/><use transform="matrix(0.020000000000000004,0,0,0.020000000000000004,9.14,0)" xlink:href="#F"/><use transform="matrix(0.020000000000000004,0,0,0.020000000000000004,17.440000000000005,0)" xlink:href="#M"/><use transform="matrix(0.020000000000000004,0,0,0.020000000000000004,27.220000000000006,0)" xlink:href="#O"/><use transform="matrix(0.020000000000000004,0,0,0.020000000000000004,31.940000000000005,0)" xlink:href="#D"/><use transform="matrix(0.020000000000000004,0,0,0.020000000000000004,42.80000000000001,0)" xlink:href="#O"/><use transform="matrix(0.020000000000000004,0,0,0.020000000000000004,47.52000000000001,0)" xlink:href="#D"/><use transform="matrix(0.020000000000000004,0,0,0.020000000000000004,58.38000000000001,0)" xlink:href="#N"/></g><path fill="#3d4752" d="M572 0H453v-345H192V0H73v-710h119v281h261v-281h119V0" id="X"/><path fill="#3d4752" d="M596 0H485L377-372 271 0H160L20-499h109l99 376 105-376h104l106 376 99-376h92" id="Y"/><g id="o"><use transform="matrix(0.020000000000000004,0,0,0.020000000000000004,0,0)" xlink:href="#X"/><use transform="matrix(0.020000000000000004,0,0,0.020000000000000004,12.900000000000002,0)" xlink:href="#M"/><use transform="matrix(0.020000000000000004,0,0,0.020000000000000004,22.680000000000003,0)" xlink:href="#F"/><use transform="matrix(0.020000000000000004,0,0,0.020000000000000004,30.760000000000005,0)" xlink:href="#W"/><use transform="matrix(0.020000000000000004,0,0,0.020000000000000004,41.18000000000001,0)" xlink:href="#Y"/><use transform="matrix(0.020000000000000004,0,0,0.020000000000000004,55.96000000000001,0)" xlink:href="#M"/><use transform="matrix(0.020000000000000004,0,0,0.020000000000000004,65.74000000000001,0)" xlink:href="#F"/><use transform="matrix(0.020000000000000004,0,0,0.020000000000000004,73.82000000000001,0)" xlink:href="#I"/></g><path fill="#3d4752" d="M461-613H192v197h226v81H192v239h276V0H73v-710h388v97" id="Z"/><g id="p"><use transform="matrix(0.020000000000000004,0,0,0.020000000000000004,0,0)" xlink:href="#Z"/><use transform="matrix(0.020000000000000004,0,0,0.020000000000000004,10.000000000000002,0)" xlink:href="#D"/><use transform="matrix(0.020000000000000004,0,0,0.020000000000000004,20.86000000000001,0)" xlink:href="#N"/><use transform="matrix(0.020000000000000004,0,0,0.020000000000000004,31.16000000000001,0)" xlink:href="#O"/><use transform="matrix(0.020000000000000004,0,0,0.020000000000000004,35.88000000000001,0)" xlink:href="#D"/><use transform="matrix(0.020000000000000004,0,0,0.020000000000000004,46.74000000000001,0)" xlink:href="#I"/><use transform="matrix(0.020000000000000004,0,0,0.020000000000000004,56.60000000000001,0)" xlink:href="#I"/><use transform="matrix(0.020000000000000004,0,0,0.020000000000000004,66.46000000000001,0)" xlink:href="#F"/></g><path fill="#3d4752" d="M516-519c0 99-42 153-110 180L554 0H426L295-314c-37 0-68 0-103-5V0H73v-709c63-3 121-3 194-4 157-2 249 37 249 194zm-119 7c0-121-94-121-205-114v231c112 12 205 3 205-117" id="aa"/><path fill="#3d4752" d="M214-506c60-2 114 24 139 60l1-53h100v752H345V-49C315-10 278 8 216 8 74 8 37-98 37-245c0-146 39-257 177-261zm42 430c41 1 67-15 89-35v-276c-23-23-54-35-91-35-85 0-108 77-108 178 0 94 21 166 110 168" id="ab"/><path fill="#3d4752" d="M267-76c65 0 92-33 92-97v-326h105v326C462-48 398 9 265 9S69-48 69-173v-326h111v326c-2 64 23 97 87 97" id="ac"/><g id="q"><use transform="matrix(0.020000000000000004,0,0,0.020000000000000004,0,0)" xlink:href="#aa"/><use transform="matrix(0.020000000000000004,0,0,0.020000000000000004,11.420000000000002,0)" xlink:href="#I"/><use transform="matrix(0.020000000000000004,0,0,0.020000000000000004,21.28,0)" xlink:href="#ab"/><use transform="matrix(0.020000000000000004,0,0,0.020000000000000004,31.680000000000003,0)" xlink:href="#ac"/><use transform="matrix(0.020000000000000004,0,0,0.020000000000000004,42.36000000000001,0)" xlink:href="#O"/><use transform="matrix(0.020000000000000004,0,0,0.020000000000000004,47.08000000000001,0)" xlink:href="#F"/><use transform="matrix(0.020000000000000004,0,0,0.020000000000000004,55.16000000000001,0)" xlink:href="#I"/><use transform="matrix(0.020000000000000004,0,0,0.020000000000000004,65.02000000000001,0)" xlink:href="#Q"/><use transform="matrix(0.020000000000000004,0,0,0.020000000000000004,81.04000000000002,0)" xlink:href="#I"/><use transform="matrix(0.020000000000000004,0,0,0.020000000000000004,90.90000000000002,0)" xlink:href="#D"/><use transform="matrix(0.020000000000000004,0,0,0.020000000000000004,101.76000000000002,0)" xlink:href="#K"/></g><g id="r"><use transform="matrix(0.020000000000000004,0,0,0.020000000000000004,0,0)" xlink:href="#U"/><use transform="matrix(0.020000000000000004,0,0,0.020000000000000004,9.14,0)" xlink:href="#I"/><use transform="matrix(0.020000000000000004,0,0,0.020000000000000004,19,0)" xlink:href="#J"/><use transform="matrix(0.020000000000000004,0,0,0.020000000000000004,28.6,0)" xlink:href="#V"/><use transform="matrix(0.020000000000000004,0,0,0.020000000000000004,39.52,0)" xlink:href="#D"/><use transform="matrix(0.020000000000000004,0,0,0.020000000000000004,50.38000000000001,0)" xlink:href="#O"/><use transform="matrix(0.020000000000000004,0,0,0.020000000000000004,55.10000000000001,0)" xlink:href="#J"/><use transform="matrix(0.020000000000000004,0,0,0.020000000000000004,64.70000000000002,0)" xlink:href="#M"/><use transform="matrix(0.020000000000000004,0,0,0.020000000000000004,74.48000000000002,0)" xlink:href="#R"/></g><path fill="#3d4752" d="M319-330L485 0H365L244-251l-65 67V0H72v-744h107v450l181-205h123" id="ad"/><g id="s"><use transform="matrix(0.020000000000000004,0,0,0.020000000000000004,0,0)" xlink:href="#P"/><use transform="matrix(0.020000000000000004,0,0,0.020000000000000004,12.440000000000003,0)" xlink:href="#R"/><use transform="matrix(0.020000000000000004,0,0,0.020000000000000004,17.540000000000006,0)" xlink:href="#I"/><use transform="matrix(0.020000000000000004,0,0,0.020000000000000004,27.400000000000006,0)" xlink:href="#F"/><use transform="matrix(0.020000000000000004,0,0,0.020000000000000004,35.70000000000001,0)" xlink:href="#ad"/></g><path fill="#3d4752" d="M228-667c-67 0-39 105-45 168h121v74H183V0H75v-425H9v-74h66v-104c2-95 56-144 151-144 60 0 121 19 126 78 2 24-21 47-43 45-35-3-39-43-81-43" id="ae"/><g id="t"><use transform="matrix(0.020000000000000004,0,0,0.020000000000000004,0,0)" xlink:href="#A"/><use transform="matrix(0.020000000000000004,0,0,0.020000000000000004,10.860000000000003,0)" xlink:href="#C"/><use transform="matrix(0.020000000000000004,0,0,0.020000000000000004,21.18000000000001,0)" xlink:href="#ae"/><use transform="matrix(0.020000000000000004,0,0,0.020000000000000004,27.660000000000004,0)" xlink:href="#K"/><use transform="matrix(0.020000000000000004,0,0,0.020000000000000004,34.86000000000001,0)" xlink:href="#Y"/><use transform="matrix(0.020000000000000004,0,0,0.020000000000000004,49.64000000000002,0)" xlink:href="#M"/><use transform="matrix(0.020000000000000004,0,0,0.020000000000000004,59.42000000000001,0)" xlink:href="#F"/><use transform="matrix(0.020000000000000004,0,0,0.020000000000000004,67.50000000000001,0)" xlink:href="#I"/></g><path fill="#3d4752" d="M437-17C347 14 186 1 73-1v-705c168-7 378-26 460 72 71 85 77 302 51 442-17 90-66 147-147 175zM289-628c-32 0-68 1-97 2v541c30 3 68 3 100 3 158 3 186-114 187-273 1-163-27-273-190-273" id="af"/><path fill="#3d4752" d="M309 8c-60 2-118-25-141-62l-1 54H68v-744h108v294c30-38 68-56 130-56 141 0 179 104 179 252C485-108 445 3 309 8zm-44-430c-36 0-69 14-89 34v275c20 22 52 37 92 37 79 0 110-76 108-179-1-94-21-167-111-167" id="ag"/><g id="u"><use transform="matrix(0.020000000000000004,0,0,0.020000000000000004,0,0)" xlink:href="#af"/><use transform="matrix(0.020000000000000004,0,0,0.020000000000000004,12.620000000000003,0)" xlink:href="#M"/><use transform="matrix(0.020000000000000004,0,0,0.020000000000000004,22.200000000000003,0)" xlink:href="#K"/><use transform="matrix(0.020000000000000004,0,0,0.020000000000000004,29.400000000000006,0)" xlink:href="#M"/><use transform="matrix(0.020000000000000004,0,0,0.020000000000000004,39.18000000000001,0)" xlink:href="#ag"/><use transform="matrix(0.020000000000000004,0,0,0.020000000000000004,49.62,0)" xlink:href="#M"/><use transform="matrix(0.020000000000000004,0,0,0.020000000000000004,59.2,0)" xlink:href="#E"/><use transform="matrix(0.020000000000000004,0,0,0.020000000000000004,68.06,0)" xlink:href="#I"/></g><g id="v"><use transform="matrix(0.020000000000000004,0,0,0.020000000000000004,0,0)" xlink:href="#A"/><use transform="matrix(0.020000000000000004,0,0,0.020000000000000004,10.860000000000003,0)" xlink:href="#ac"/><use transform="matrix(0.020000000000000004,0,0,0.020000000000000004,21.540000000000003,0)" xlink:href="#B"/><use transform="matrix(0.020000000000000004,0,0,0.020000000000000004,31.980000000000008,0)" xlink:href="#B"/><use transform="matrix(0.020000000000000004,0,0,0.020000000000000004,42.42000000000001,0)" xlink:href="#C"/><use transform="matrix(0.020000000000000004,0,0,0.020000000000000004,52.74000000000001,0)" xlink:href="#F"/><use transform="matrix(0.020000000000000004,0,0,0.020000000000000004,61.26000000000001,0)" xlink:href="#K"/></g><path fill="#3d4752" d="M272 108c77 45 229 32 322 12l20 66c-46 23-129 37-200 36-124-2-255-21-255-142 0-39 13-70 40-95C81-64 33-173 33-351c0-230 82-367 307-367 224 0 306 139 306 367C646-102 539 33 281 5c-31 18-46 81-9 103zm245-451c0-159-27-289-180-289-142 0-175 107-175 268 0 170 37 286 181 286 145 0 174-116 174-265" id="ah"/><g id="w"><use transform="matrix(0.020000000000000004,0,0,0.020000000000000004,0,0)" xlink:href="#ah"/><use transform="matrix(0.020000000000000004,0,0,0.020000000000000004,13.060000000000002,0)" xlink:href="#T"/></g><path fill="#3d4752" d="M750 0H644L478-518 316 0H208L13-710h117l139 539 162-539h108l164 539 136-539h103" id="ai"/><g id="x"><use transform="matrix(0.020000000000000004,0,0,0.020000000000000004,0,0)" xlink:href="#ai"/><use transform="matrix(0.020000000000000004,0,0,0.020000000000000004,18.28,0)" xlink:href="#I"/><use transform="matrix(0.020000000000000004,0,0,0.020000000000000004,28.14,0)" xlink:href="#ag"/></g><g id="y"><use transform="matrix(0.020000000000000004,0,0,0.020000000000000004,0,0)" xlink:href="#af"/><use transform="matrix(0.020000000000000004,0,0,0.020000000000000004,12.620000000000003,0)" xlink:href="#I"/><use transform="matrix(0.020000000000000004,0,0,0.020000000000000004,22.480000000000004,0)" xlink:href="#E"/><use transform="matrix(0.020000000000000004,0,0,0.020000000000000004,31.34,0)" xlink:href="#O"/><use transform="matrix(0.020000000000000004,0,0,0.020000000000000004,36.06,0)" xlink:href="#N"/><use transform="matrix(0.020000000000000004,0,0,0.020000000000000004,46.36000000000001,0)" xlink:href="#D"/><use transform="matrix(0.020000000000000004,0,0,0.020000000000000004,57.22000000000001,0)" xlink:href="#I"/><use transform="matrix(0.020000000000000004,0,0,0.020000000000000004,67.08000000000001,0)" xlink:href="#F"/></g><g id="z"><use transform="matrix(0.020000000000000004,0,0,0.020000000000000004,0,0)" xlink:href="#af"/><use transform="matrix(0.020000000000000004,0,0,0.020000000000000004,12.620000000000003,0)" xlink:href="#C"/><use transform="matrix(0.020000000000000004,0,0,0.020000000000000004,22.940000000000005,0)" xlink:href="#J"/><use transform="matrix(0.020000000000000004,0,0,0.020000000000000004,32.540000000000006,0)" xlink:href="#ac"/><use transform="matrix(0.020000000000000004,0,0,0.020000000000000004,43.220000000000006,0)" xlink:href="#Q"/><use transform="matrix(0.020000000000000004,0,0,0.020000000000000004,59.24000000000001,0)" xlink:href="#I"/><use transform="matrix(0.020000000000000004,0,0,0.020000000000000004,69.10000000000001,0)" xlink:href="#D"/><use transform="matrix(0.020000000000000004,0,0,0.020000000000000004,79.96000000000001,0)" xlink:href="#K"/><use transform="matrix(0.020000000000000004,0,0,0.020000000000000004,87.16000000000001,0)" xlink:href="#M"/><use transform="matrix(0.020000000000000004,0,0,0.020000000000000004,96.74,0)" xlink:href="#K"/><use transform="matrix(0.020000000000000004,0,0,0.020000000000000004,103.94000000000003,0)" xlink:href="#O"/><use transform="matrix(0.020000000000000004,0,0,0.020000000000000004,108.66,0)" xlink:href="#C"/><use transform="matrix(0.020000000000000004,0,0,0.020000000000000004,118.98000000000002,0)" xlink:href="#D"/></g></defs></g></svg>